<svg width="25" height="51" viewBox="0 0 25 51" fill="none" xmlns="http://www.w3.org/2000/svg">
<g clip-path="url(#clip0_512_1156)">
<path d="M3.87942 18.4806L6.10352e-05 14.6652L1.69272 13L5.57088 16.8165H23.8038C23.9902 16.8165 24.1741 16.8594 24.3407 16.9417C24.5074 17.0241 24.6521 17.1436 24.7634 17.2907C24.8748 17.4378 24.9496 17.6086 24.982 17.7892C25.0143 17.9699 25.0033 18.1554 24.9498 18.3312L22.0788 27.746C22.005 27.9886 21.8536 28.2012 21.6471 28.3524C21.4407 28.5035 21.1902 28.5852 20.9328 28.5851H6.27186V30.9389H19.4304V33.2926H5.07564C4.75839 33.2926 4.45412 33.1686 4.22979 32.9479C4.00545 32.7272 3.87942 32.4278 3.87942 32.1157V18.4806ZM6.27186 19.1703V26.2314H20.0429L22.1961 19.1703H6.27186ZM5.67376 38C5.19787 38 4.74147 37.814 4.40497 37.483C4.06846 37.1519 3.87942 36.7029 3.87942 36.2347C3.87942 35.7665 4.06846 35.3175 4.40497 34.9865C4.74147 34.6554 5.19787 34.4694 5.67376 34.4694C6.14966 34.4694 6.60606 34.6554 6.94256 34.9865C7.27906 35.3175 7.46806 35.7665 7.46806 36.2347C7.46806 36.7029 7.27906 37.1519 6.94256 37.483C6.60606 37.814 6.14966 38 5.67376 38ZM20.0285 38C19.5526 38 19.0962 37.814 18.7597 37.483C18.4232 37.1519 18.2342 36.7029 18.2342 36.2347C18.2342 35.7665 18.4232 35.3175 18.7597 34.9865C19.0962 34.6554 19.5526 34.4694 20.0285 34.4694C20.5044 34.4694 20.9608 34.6554 21.2973 34.9865C21.6338 35.3175 21.8228 35.7665 21.8228 36.2347C21.8228 36.7029 21.6338 37.1519 21.2973 37.483C20.9608 37.814 20.5044 38 20.0285 38Z" fill="white"/>
</g>
<defs>
<clipPath id="clip0_512_1156">
<rect x="6.10352e-05" width="25" height="51" rx="12.5" fill="white"/>
</clipPath>
</defs>
</svg>
