<svg width="40" height="41" viewBox="0 0 40 41" fill="none" xmlns="http://www.w3.org/2000/svg">
<path d="M0 20.2129C0 9.1672 8.95431 0.212891 20 0.212891C31.0457 0.212891 40 9.1672 40 20.2129C40 31.2586 31.0457 40.2129 20 40.2129C8.95431 40.2129 0 31.2586 0 20.2129Z" fill="#00BCCC"/>
<path d="M14.6121 15.8258L12.1875 13.4412L13.2454 12.4004L15.6693 14.7857H27.0648C27.1813 14.7857 27.2962 14.8125 27.4004 14.864C27.5046 14.9154 27.595 14.9901 27.6646 15.0821C27.7342 15.174 27.7809 15.2807 27.8012 15.3936C27.8214 15.5066 27.8145 15.6225 27.7811 15.7324L25.9867 21.6166C25.9406 21.7683 25.8459 21.9011 25.7169 21.9956C25.5879 22.0901 25.4313 22.1411 25.2704 22.1411H16.1074V23.6122H24.3314V25.0833H15.3597C15.1615 25.0833 14.9713 25.0058 14.8311 24.8678C14.6909 24.7299 14.6121 24.5428 14.6121 24.3477V15.8258ZM16.1074 16.2568V20.67H24.7143L26.06 16.2568H16.1074ZM15.7336 28.0254C15.4361 28.0254 15.1509 27.9091 14.9406 27.7023C14.7303 27.4953 14.6121 27.2147 14.6121 26.9221C14.6121 26.6295 14.7303 26.3488 14.9406 26.142C15.1509 25.935 15.4361 25.8188 15.7336 25.8188C16.031 25.8188 16.3163 25.935 16.5266 26.142C16.7369 26.3488 16.855 26.6295 16.855 26.9221C16.855 27.2147 16.7369 27.4953 16.5266 27.7023C16.3163 27.9091 16.031 28.0254 15.7336 28.0254ZM24.7052 28.0254C24.4078 28.0254 24.1226 27.9091 23.9122 27.7023C23.7019 27.4953 23.5838 27.2147 23.5838 26.9221C23.5838 26.6295 23.7019 26.3488 23.9122 26.142C24.1226 25.935 24.4078 25.8188 24.7052 25.8188C25.0027 25.8188 25.2879 25.935 25.4982 26.142C25.7086 26.3488 25.8267 26.6295 25.8267 26.9221C25.8267 27.2147 25.7086 27.4953 25.4982 27.7023C25.2879 27.9091 25.0027 28.0254 24.7052 28.0254Z" fill="white"/>
</svg>
