<svg width="24" height="24" viewBox="0 0 24 24" fill="none" xmlns="http://www.w3.org/2000/svg">
<path d="M20 15.9289V19.072C20.0001 19.297 19.9148 19.5138 19.7614 19.6784C19.608 19.843 19.3978 19.9434 19.1733 19.9591C18.7849 19.9858 18.4676 20 18.2222 20C10.3671 20 4 13.6329 4 5.77778C4 5.53244 4.01333 5.21511 4.04089 4.82667C4.05664 4.60217 4.15696 4.39201 4.3216 4.23859C4.48625 4.08516 4.70295 3.9999 4.928 4H8.07111C8.18137 3.99989 8.28773 4.04076 8.36954 4.11468C8.45134 4.18861 8.50275 4.2903 8.51378 4.4C8.53422 4.60444 8.55289 4.76711 8.57067 4.89067C8.74732 6.12349 9.10934 7.32252 9.64444 8.44711C9.72889 8.62489 9.67378 8.83733 9.51378 8.95111L7.59556 10.3218C8.7684 13.0546 10.9463 15.2325 13.6791 16.4053L15.048 14.4907C15.104 14.4124 15.1856 14.3563 15.2787 14.3321C15.3717 14.3079 15.4704 14.3172 15.5573 14.3582C16.6818 14.8923 17.8805 15.2534 19.1129 15.4293C19.2364 15.4471 19.3991 15.4667 19.6018 15.4862C19.7113 15.4975 19.8128 15.549 19.8865 15.6307C19.9603 15.7125 20.001 15.8188 20.0009 15.9289H20Z" fill="#029AAD"/>
</svg>
