<svg width="43" height="32" viewBox="0 0 43 32" fill="none" xmlns="http://www.w3.org/2000/svg">
<g clip-path="url(#clip0_512_773)">
<path d="M0.405869 3.41284C0.405869 1.81284 1.70587 0.412842 3.40587 0.412842H4.50587V6.41284H3.30587C1.70587 6.41284 0.405869 5.11284 0.405869 3.41284Z" fill="#FFF4C1"/>
<path d="M0.605869 7.31287L6.00587 7.51287L0.405869 3.31287L0.605869 7.31287Z" fill="#FFCD00"/>
</g>
<path d="M42.6063 10.2129C42.6063 8.55604 41.2631 7.21289 39.6063 7.21289H0.606262V23.2129C0.606262 27.6312 4.18798 31.2129 8.60626 31.2129H39.6063C41.2631 31.2129 42.6063 29.8697 42.6063 28.2129V10.2129Z" fill="#FFCD00"/>
<path d="M22.5827 16.6541C22.6421 16.6541 22.6718 16.6541 22.7311 16.6244C23.7701 16.3276 24.5419 15.912 25.0168 15.4073C25.4324 14.9621 25.6105 14.4277 25.6105 13.8044C25.6105 13.0919 25.284 12.3795 24.7497 11.9046C24.2154 11.4296 23.5029 11.1624 22.7608 11.2218C22.1374 11.2812 21.6328 11.5187 21.2172 11.9639C20.297 13.0029 20.0892 14.9918 20.0595 16.0901C20.0595 16.3869 20.2673 16.6244 20.5642 16.6244C20.861 16.6244 21.0985 16.4166 21.0985 16.1198C21.1578 14.5168 21.4844 13.2404 21.989 12.6764C22.1968 12.4389 22.4937 12.2905 22.8202 12.2608C23.2655 12.2311 23.681 12.3795 24.0076 12.6764C24.3341 12.9732 24.5122 13.3888 24.5419 13.8044C24.5419 14.1606 24.4528 14.4277 24.2154 14.6949C23.8888 15.0511 23.2655 15.3777 22.4343 15.6151C22.1671 15.7042 21.989 15.9713 22.0781 16.2682C22.1374 16.476 22.3452 16.6541 22.5827 16.6541Z" fill="white"/>
<path d="M18.5746 16.6541C18.8121 16.6541 19.0199 16.5057 19.0792 16.2682C19.1683 16.001 18.9902 15.7042 18.723 15.6151C17.8918 15.3777 17.2685 15.0511 16.9419 14.6949C16.7341 14.4574 16.6154 14.1606 16.6154 13.8044C16.6154 13.3591 16.7935 12.9732 17.1497 12.6764C17.4763 12.3795 17.8918 12.2311 18.3371 12.2608C18.6933 12.2905 18.9605 12.4092 19.1683 12.6764C19.6729 13.2404 19.9995 14.5168 20.0588 16.1198C20.0588 16.4166 20.2963 16.6541 20.5931 16.6244C20.89 16.6244 21.0978 16.3869 21.0978 16.0901C21.0681 14.9918 20.8603 13.0029 19.9401 11.9639C19.5245 11.5187 19.0199 11.2812 18.3965 11.2218C17.6841 11.1625 16.9716 11.3999 16.4076 11.9046C15.8733 12.3795 15.5468 13.092 15.5468 13.8044C15.5468 14.4278 15.7249 14.9621 16.1405 15.4074C16.6154 15.912 17.3575 16.3276 18.4262 16.6244C18.4855 16.6244 18.5152 16.6541 18.5746 16.6541Z" fill="white"/>
<path d="M13.3206 17.7822H27.8364C28.1035 17.7822 28.341 17.5448 28.341 17.2776V16.4167C28.341 16.1496 28.1035 15.9121 27.8364 15.9121H13.3503C13.0831 15.9121 12.8456 16.1496 12.8456 16.4167V17.2776C12.816 17.5448 13.0534 17.7822 13.3206 17.7822Z" fill="white"/>
<path d="M13.3204 18.0196H27.8362C28.2518 18.0196 28.5783 17.6931 28.5783 17.2775V16.4167C28.5783 16.0011 28.2518 15.6746 27.8362 15.6746H13.3501C12.9345 15.6746 12.608 16.0011 12.608 16.4167V17.2775C12.5783 17.6931 12.9345 18.0196 13.3204 18.0196ZM27.8362 16.1495C27.9846 16.1495 28.1034 16.2683 28.1034 16.4167V17.2775C28.1034 17.426 27.9846 17.5447 27.8362 17.5447H13.3501C13.2017 17.5447 13.0829 17.426 13.0829 17.2775V16.4167C13.0829 16.2683 13.2017 16.1495 13.3501 16.1495H27.8362Z" fill="white"/>
<path d="M19.1385 18.7024V25.4408H22.0179V18.7024H27.3908V24.5206C27.3908 25.4111 26.6784 26.1235 25.7878 26.1235H15.3685C14.478 26.1235 13.7656 25.4111 13.7656 24.5206V18.7024H19.1385Z" fill="white"/>
<defs>
<clipPath id="clip0_512_773">
<rect width="6" height="8" fill="white" transform="translate(0.205872 0.212891)"/>
</clipPath>
</defs>
</svg>
