<svg width="25" height="51" viewBox="0 0 25 51" fill="none" xmlns="http://www.w3.org/2000/svg">
<g clip-path="url(#clip0_512_1150)">
<path d="M12.3626 16.0121C15.2662 13.4179 19.7533 13.504 22.5507 16.2925C25.3469 19.0822 25.4433 23.5251 22.8424 26.423L12.3601 36.8686L1.88021 26.423C-0.720594 23.5251 -0.622939 19.0748 2.17195 16.2925C4.97178 13.5077 9.45026 13.4142 12.3626 16.0121ZM20.8004 18.0305C18.9462 16.183 15.9548 16.108 14.014 17.8423L12.3638 19.3159L10.7123 17.8436C8.76545 16.1068 5.7802 16.183 3.92107 18.033C2.07924 19.8657 1.98653 22.7994 3.68373 24.7379L12.3613 33.3863L21.039 24.7391C22.7374 22.7994 22.6446 19.8694 20.8004 18.0305Z" fill="white"/>
</g>
<defs>
<clipPath id="clip0_512_1150">
<rect width="24.723" height="51" fill="white"/>
</clipPath>
</defs>
</svg>
