<svg width="75" height="31" viewBox="0 0 75 31" fill="none" xmlns="http://www.w3.org/2000/svg">
<path d="M1.0051 6.81348H71.0051C72.6619 6.81348 74.0051 8.15662 74.0051 9.81348V27.8135C74.0051 29.4703 72.6619 30.8135 71.0051 30.8135H9.0051C4.58682 30.8135 1.0051 27.2318 1.0051 22.8135V6.81348Z" fill="#62D44D"/>
<path d="M16.1182 22.8135V15.6135H17.4782V18.5735H20.6982V15.6135H22.0582V22.8135H20.6982V19.8435H17.4782V22.8135H16.1182ZM25.8919 22.9635C25.3486 22.9635 24.8719 22.8418 24.4619 22.5985C24.0519 22.3551 23.7319 22.0201 23.5019 21.5935C23.2753 21.1635 23.1619 20.6701 23.1619 20.1135C23.1619 19.5501 23.2786 19.0551 23.5119 18.6285C23.7453 18.1985 24.0669 17.8635 24.4769 17.6235C24.8869 17.3835 25.3586 17.2635 25.8919 17.2635C26.4353 17.2635 26.9119 17.3851 27.3219 17.6285C27.7353 17.8718 28.0569 18.2085 28.2869 18.6385C28.5169 19.0651 28.6319 19.5568 28.6319 20.1135C28.6319 20.6735 28.5153 21.1685 28.2819 21.5985C28.0519 22.0251 27.7303 22.3601 27.3169 22.6035C26.9069 22.8435 26.4319 22.9635 25.8919 22.9635ZM25.8919 21.6935C26.3286 21.6935 26.6536 21.5468 26.8669 21.2535C27.0836 20.9568 27.1919 20.5768 27.1919 20.1135C27.1919 19.6335 27.0819 19.2501 26.8619 18.9635C26.6453 18.6768 26.3219 18.5335 25.8919 18.5335C25.5953 18.5335 25.3519 18.6001 25.1619 18.7335C24.9719 18.8668 24.8303 19.0518 24.7369 19.2885C24.6469 19.5251 24.6019 19.8001 24.6019 20.1135C24.6019 20.5968 24.7103 20.9818 24.9269 21.2685C25.1469 21.5518 25.4686 21.6935 25.8919 21.6935ZM29.7215 22.8135V17.4135H32.2515C32.4515 17.4135 32.6265 17.4251 32.7765 17.4485C32.9265 17.4685 33.0515 17.4935 33.1515 17.5235C33.3981 17.5968 33.6231 17.7401 33.8265 17.9535C34.0298 18.1668 34.1315 18.4768 34.1315 18.8835C34.1315 19.1235 34.0931 19.3185 34.0165 19.4685C33.9398 19.6151 33.8381 19.7368 33.7115 19.8335C33.6515 19.8768 33.5915 19.9135 33.5315 19.9435C33.4715 19.9735 33.4115 19.9968 33.3515 20.0135C33.4915 20.0335 33.6181 20.0701 33.7315 20.1235C33.9115 20.2035 34.0681 20.3301 34.2015 20.5035C34.3348 20.6735 34.4015 20.9268 34.4015 21.2635C34.4015 21.6235 34.3131 21.9301 34.1365 22.1835C33.9631 22.4368 33.7015 22.6135 33.3515 22.7135C33.2315 22.7468 33.0898 22.7718 32.9265 22.7885C32.7665 22.8051 32.5981 22.8135 32.4215 22.8135H29.7215ZM31.1015 21.7835H32.3215C32.3915 21.7835 32.4631 21.7768 32.5365 21.7635C32.6131 21.7468 32.6815 21.7268 32.7415 21.7035C32.8381 21.6635 32.9065 21.5951 32.9465 21.4985C32.9898 21.4018 33.0115 21.3035 33.0115 21.2035C33.0115 21.0635 32.9798 20.9535 32.9165 20.8735C32.8565 20.7935 32.7881 20.7368 32.7115 20.7035C32.6481 20.6735 32.5781 20.6568 32.5015 20.6535C32.4281 20.6468 32.3681 20.6435 32.3215 20.6435H31.1015V21.7835ZM31.1015 19.5935H31.9315C32.0381 19.5935 32.1381 19.5885 32.2315 19.5785C32.3281 19.5651 32.4081 19.5435 32.4715 19.5135C32.5581 19.4735 32.6231 19.4101 32.6665 19.3235C32.7098 19.2335 32.7315 19.1335 32.7315 19.0235C32.7315 18.9068 32.7065 18.8018 32.6565 18.7085C32.6098 18.6118 32.5315 18.5468 32.4215 18.5135C32.3481 18.4868 32.2548 18.4718 32.1415 18.4685C32.0315 18.4651 31.9615 18.4635 31.9315 18.4635H31.1015V19.5935ZM40.2153 17.4135V22.8135H38.9153V19.5135L36.4753 22.8135H35.3953V17.4135H36.6953V20.6035L39.1453 17.4135H40.2153ZM41.6062 22.8135V17.4135H42.9662V19.4735H45.1862V17.4135H46.5462V22.8135H45.1862V20.7435H42.9662V22.8135H41.6062ZM47.9344 22.8135L47.9444 17.4135H49.3244V20.0135L51.1544 17.4135H52.8344L50.8844 20.1135L52.9644 22.8135H51.1944L49.3244 20.2135V22.8135H47.9344ZM54.9619 22.9635C54.5753 22.9635 54.2469 22.8901 53.9769 22.7435C53.7103 22.5935 53.5069 22.3951 53.3669 22.1485C53.2303 21.8985 53.1619 21.6235 53.1619 21.3235C53.1619 21.0735 53.2003 20.8451 53.2769 20.6385C53.3536 20.4318 53.4769 20.2501 53.6469 20.0935C53.8203 19.9335 54.0519 19.8001 54.3419 19.6935C54.5419 19.6201 54.7803 19.5551 55.0569 19.4985C55.3336 19.4418 55.6469 19.3885 55.9969 19.3385C56.3469 19.2851 56.7319 19.2268 57.1519 19.1635L56.6619 19.4335C56.6619 19.1135 56.5853 18.8785 56.4319 18.7285C56.2786 18.5785 56.0219 18.5035 55.6619 18.5035C55.4619 18.5035 55.2536 18.5518 55.0369 18.6485C54.8203 18.7451 54.6686 18.9168 54.5819 19.1635L53.3519 18.7735C53.4886 18.3268 53.7453 17.9635 54.1219 17.6835C54.4986 17.4035 55.0119 17.2635 55.6619 17.2635C56.1386 17.2635 56.5619 17.3368 56.9319 17.4835C57.3019 17.6301 57.5819 17.8835 57.7719 18.2435C57.8786 18.4435 57.9419 18.6435 57.9619 18.8435C57.9819 19.0435 57.9919 19.2668 57.9919 19.5135V22.8135H56.8019V21.7035L56.9719 21.9335C56.7086 22.2968 56.4236 22.5601 56.1169 22.7235C55.8136 22.8835 55.4286 22.9635 54.9619 22.9635ZM55.2519 21.8935C55.5019 21.8935 55.7119 21.8501 55.8819 21.7635C56.0553 21.6735 56.1919 21.5718 56.2919 21.4585C56.3953 21.3451 56.4653 21.2501 56.5019 21.1735C56.5719 21.0268 56.6119 20.8568 56.6219 20.6635C56.6353 20.4668 56.6419 20.3035 56.6419 20.1735L57.0419 20.2735C56.6386 20.3401 56.3119 20.3968 56.0619 20.4435C55.8119 20.4868 55.6103 20.5268 55.4569 20.5635C55.3036 20.6001 55.1686 20.6401 55.0519 20.6835C54.9186 20.7368 54.8103 20.7951 54.7269 20.8585C54.6469 20.9185 54.5869 20.9851 54.5469 21.0585C54.5103 21.1318 54.4919 21.2135 54.4919 21.3035C54.4919 21.4268 54.5219 21.5335 54.5819 21.6235C54.6453 21.7101 54.7336 21.7768 54.8469 21.8235C54.9603 21.8701 55.0953 21.8935 55.2519 21.8935Z" fill="white"/>
<path d="M0.805878 3.01318C0.805878 1.41318 2.10588 0.0131836 3.80588 0.0131836H4.90588V6.01318H3.70588C2.10588 6.01318 0.805878 4.71318 0.805878 3.01318Z" fill="#62D44D" fill-opacity="0.3"/>
<path d="M1.00588 6.91321L6.40588 7.11321L0.805878 2.91321L1.00588 6.91321Z" fill="#62D44D"/>
</svg>
