<svg width="44" height="32" viewBox="0 0 44 32" fill="none" xmlns="http://www.w3.org/2000/svg">
<g clip-path="url(#clip0_512_616)">
<path d="M1.00589 4.01343C1.00589 2.41343 2.30589 1.01343 4.00589 1.01343H5.10589V7.01343H3.90589C2.30589 7.01343 1.00589 5.71343 1.00589 4.01343Z" fill="#FFF4C1"/>
<path d="M1.20589 7.91345L6.60589 8.11345L1.00589 3.91345L1.20589 7.91345Z" fill="#FFCD00"/>
</g>
<path d="M43.2063 10.8135C43.2063 9.15662 41.8631 7.81348 40.2063 7.81348H1.20627V23.8135C1.20627 28.2318 4.78799 31.8135 9.20627 31.8135H40.2063C41.8631 31.8135 43.2063 30.4703 43.2063 28.8135V10.8135Z" fill="#FFCD00"/>
<path d="M23.1827 17.2547C23.2421 17.2547 23.2718 17.2547 23.3311 17.225C24.3701 16.9281 25.1419 16.5126 25.6168 16.0079C26.0324 15.5627 26.2105 15.0283 26.2105 14.405C26.2105 13.6925 25.884 12.9801 25.3497 12.5051C24.8154 12.0302 24.1029 11.763 23.3608 11.8224C22.7374 11.8818 22.2328 12.1192 21.8172 12.5645C20.897 13.6035 20.6892 15.5923 20.6595 16.6907C20.6595 16.9875 20.8673 17.225 21.1642 17.225C21.461 17.225 21.6985 17.0172 21.6985 16.7204C21.7579 15.1174 22.0844 13.8409 22.589 13.2769C22.7968 13.0395 23.0937 12.891 23.4202 12.8614C23.8655 12.8317 24.281 12.9801 24.6076 13.2769C24.9341 13.5738 25.1122 13.9894 25.1419 14.405C25.1419 14.7612 25.0528 15.0283 24.8154 15.2955C24.4888 15.6517 23.8655 15.9782 23.0343 16.2157C22.7671 16.3048 22.589 16.5719 22.6781 16.8688C22.7374 17.0766 22.9452 17.2547 23.1827 17.2547Z" fill="white"/>
<path d="M19.1746 17.2547C19.4121 17.2547 19.6199 17.1063 19.6792 16.8688C19.7683 16.6016 19.5902 16.3048 19.323 16.2157C18.4918 15.9783 17.8685 15.6517 17.5419 15.2955C17.3341 15.058 17.2154 14.7612 17.2154 14.405C17.2154 13.9597 17.3935 13.5738 17.7497 13.277C18.0763 12.9801 18.4918 12.8317 18.9371 12.8614C19.2933 12.8911 19.5605 13.0098 19.7683 13.277C20.2729 13.841 20.5995 15.1174 20.6588 16.7204C20.6588 17.0172 20.8963 17.2547 21.1931 17.225C21.49 17.225 21.6978 16.9875 21.6978 16.6907C21.6681 15.5924 21.4603 13.6035 20.5401 12.5645C20.1245 12.1193 19.6199 11.8818 18.9965 11.8224C18.2841 11.763 17.5716 12.0005 17.0076 12.5052C16.4733 12.9801 16.1468 13.6925 16.1468 14.405C16.1468 15.0283 16.3249 15.5627 16.7405 16.0079C17.2154 16.5126 17.9575 16.9282 19.0262 17.225C19.0855 17.225 19.1152 17.2547 19.1746 17.2547Z" fill="white"/>
<path d="M13.9206 18.3828H28.4364C28.7035 18.3828 28.941 18.1453 28.941 17.8782V17.0173C28.941 16.7502 28.7035 16.5127 28.4364 16.5127H13.9503C13.6831 16.5127 13.4456 16.7502 13.4456 17.0173V17.8782C13.416 18.1453 13.6534 18.3828 13.9206 18.3828Z" fill="white"/>
<path d="M13.9204 18.6202H28.4362C28.8518 18.6202 29.1783 18.2937 29.1783 17.8781V17.0173C29.1783 16.6017 28.8518 16.2751 28.4362 16.2751H13.9501C13.5345 16.2751 13.208 16.6017 13.208 17.0173V17.8781C13.1783 18.2937 13.5345 18.6202 13.9204 18.6202ZM28.4362 16.7501C28.5846 16.7501 28.7034 16.8688 28.7034 17.0173V17.8781C28.7034 18.0265 28.5846 18.1453 28.4362 18.1453H13.9501C13.8017 18.1453 13.683 18.0265 13.683 17.8781V17.0173C13.683 16.8688 13.8017 16.7501 13.9501 16.7501H28.4362Z" fill="white"/>
<path d="M19.7385 19.303V26.0414H22.6179V19.303H27.9908V25.1212C27.9908 26.0117 27.2784 26.7241 26.3878 26.7241H15.9685C15.078 26.7241 14.3656 26.0117 14.3656 25.1212V19.303H19.7385Z" fill="white"/>
<defs>
<clipPath id="clip0_512_616">
<rect width="6" height="8" fill="white" transform="translate(0.805878 0.813477)"/>
</clipPath>
</defs>
</svg>
