<svg width="25" height="24" viewBox="0 0 25 24" fill="none" xmlns="http://www.w3.org/2000/svg">
<path d="M21.9529 20.293L17.4139 15.754C18.7608 14.0464 19.4043 11.8888 19.2129 9.72241C19.0214 7.55604 18.0094 5.5447 16.3839 4.09984C14.7585 2.65499 12.6423 1.88584 10.4685 1.94973C8.29459 2.01362 6.22728 2.90573 4.68946 4.44355C3.15164 5.98137 2.25953 8.04868 2.19564 10.2225C2.13175 12.3964 2.9009 14.5125 4.34576 16.138C5.79061 17.7635 7.80195 18.7755 9.96832 18.9669C12.1347 19.1584 14.2923 18.5148 15.9999 17.168L20.5389 21.707L21.9529 20.293ZM10.7459 17C9.46029 17 8.20358 16.6187 7.13466 15.9045C6.06574 15.1903 5.23262 14.1751 4.74065 12.9874C4.24868 11.7997 4.11996 10.4927 4.37076 9.23187C4.62156 7.97099 5.24063 6.8128 6.14967 5.90376C7.05871 4.99472 8.2169 4.37565 9.47778 4.12485C10.7387 3.87405 12.0456 4.00277 13.2333 4.49474C14.421 4.98671 15.4362 5.81983 16.1504 6.88875C16.8646 7.95767 17.2459 9.21438 17.2459 10.5C17.2437 12.2232 16.5582 13.8753 15.3397 15.0938C14.1212 16.3123 12.4691 16.9978 10.7459 17Z" fill="black"/>
</svg>
