<svg width="75" height="32" viewBox="0 0 75 32" fill="none" xmlns="http://www.w3.org/2000/svg">
<path d="M1.0051 7.01318H71.0051C72.6619 7.01318 74.0051 8.35633 74.0051 10.0132V28.0132C74.0051 29.67 72.6619 31.0132 71.0051 31.0132H9.0051C4.58682 31.0132 1.0051 27.4315 1.0051 23.0132V7.01318Z" fill="url(#paint0_linear_512_594)"/>
<path d="M7.5006 23.0132L9.9206 19.3732L7.5706 15.8132H9.2406L10.7706 18.2132L12.2806 15.8132H13.9606L11.6106 19.3732L14.0206 23.0132H12.3506L10.7706 20.5332L9.1806 23.0132H7.5006ZM19.6294 17.6132V23.0132H18.3294V19.7132L15.8894 23.0132H14.8094V17.6132H16.1094V20.8032L18.5594 17.6132H19.6294ZM22.3503 23.0132V18.8132H20.5803V17.6132H25.4803V18.8132H23.7103V23.0132H22.3503ZM28.4226 23.0132V17.6132H33.2426V23.0132H31.8826V18.8832H29.7826V23.0132H28.4226ZM37.2936 23.1632C36.7569 23.1632 36.3086 23.0382 35.9486 22.7882C35.5886 22.5382 35.3169 22.1982 35.1336 21.7682C34.9536 21.3382 34.8636 20.8532 34.8636 20.3132C34.8636 19.7732 34.9536 19.2882 35.1336 18.8582C35.3136 18.4282 35.5786 18.0882 35.9286 17.8382C36.2786 17.5882 36.7102 17.4632 37.2236 17.4632C37.7402 17.4632 38.1902 17.5865 38.5736 17.8332C38.9569 18.0798 39.2536 18.4182 39.4636 18.8482C39.6769 19.2749 39.7836 19.7632 39.7836 20.3132C39.7836 20.8532 39.6786 21.3382 39.4686 21.7682C39.2619 22.1982 38.9719 22.5382 38.5986 22.7882C38.2252 23.0382 37.7902 23.1632 37.2936 23.1632ZM34.6336 25.4132V17.6132H35.8336V21.3132H36.0036V25.4132H34.6336ZM37.0736 21.9532C37.3669 21.9532 37.6069 21.8799 37.7936 21.7332C37.9802 21.5865 38.1186 21.3899 38.2086 21.1432C38.2986 20.8932 38.3436 20.6165 38.3436 20.3132C38.3436 20.0132 38.2969 19.7398 38.2036 19.4932C38.1102 19.2432 37.9652 19.0449 37.7686 18.8982C37.5752 18.7482 37.3269 18.6732 37.0236 18.6732C36.7402 18.6732 36.5102 18.7415 36.3336 18.8782C36.1602 19.0149 36.0336 19.2065 35.9536 19.4532C35.8736 19.6999 35.8336 19.9865 35.8336 20.3132C35.8336 20.6399 35.8736 20.9265 35.9536 21.1732C36.0336 21.4199 36.1636 21.6115 36.3436 21.7482C36.5269 21.8849 36.7702 21.9532 37.0736 21.9532ZM43.3138 23.1632C42.7705 23.1632 42.2938 23.0415 41.8838 22.7982C41.4738 22.5549 41.1538 22.2199 40.9238 21.7932C40.6971 21.3632 40.5838 20.8699 40.5838 20.3132C40.5838 19.7499 40.7005 19.2549 40.9338 18.8282C41.1671 18.3982 41.4888 18.0632 41.8988 17.8232C42.3088 17.5832 42.7805 17.4632 43.3138 17.4632C43.8571 17.4632 44.3338 17.5849 44.7438 17.8282C45.1571 18.0715 45.4788 18.4082 45.7088 18.8382C45.9388 19.2649 46.0538 19.7565 46.0538 20.3132C46.0538 20.8732 45.9371 21.3682 45.7038 21.7982C45.4738 22.2249 45.1521 22.5599 44.7388 22.8032C44.3288 23.0432 43.8538 23.1632 43.3138 23.1632ZM43.3138 21.8932C43.7505 21.8932 44.0755 21.7465 44.2888 21.4532C44.5055 21.1565 44.6138 20.7765 44.6138 20.3132C44.6138 19.8332 44.5038 19.4499 44.2838 19.1632C44.0671 18.8765 43.7438 18.7332 43.3138 18.7332C43.0171 18.7332 42.7738 18.7998 42.5838 18.9332C42.3938 19.0665 42.2521 19.2515 42.1588 19.4882C42.0688 19.7249 42.0238 19.9999 42.0238 20.3132C42.0238 20.7965 42.1321 21.1815 42.3488 21.4682C42.5688 21.7515 42.8905 21.8932 43.3138 21.8932ZM46.7533 24.2132V21.9632C47.04 21.9632 47.2433 21.8632 47.3633 21.6632C47.4867 21.4632 47.5833 21.1065 47.6533 20.5932C47.6933 20.2965 47.7267 19.9849 47.7533 19.6582C47.7833 19.3315 47.8083 18.9965 47.8283 18.6532C47.8483 18.3099 47.8667 17.9632 47.8833 17.6132H52.0533V21.9632H52.6033V24.2132H51.3233V23.0132H48.0333V24.2132H46.7533ZM48.4933 21.9632H50.6933V18.6632H49.0633C49.0533 18.8465 49.0417 19.0298 49.0283 19.2132C49.0183 19.3965 49.005 19.5782 48.9883 19.7582C48.975 19.9382 48.9617 20.1132 48.9483 20.2832C48.935 20.4499 48.92 20.6099 48.9033 20.7632C48.8733 21.0565 48.8317 21.2949 48.7783 21.4782C48.725 21.6615 48.63 21.8232 48.4933 21.9632ZM55.0987 23.1632C54.712 23.1632 54.3837 23.0899 54.1137 22.9432C53.847 22.7932 53.6437 22.5949 53.5037 22.3482C53.367 22.0982 53.2987 21.8232 53.2987 21.5232C53.2987 21.2732 53.337 21.0449 53.4137 20.8382C53.4903 20.6315 53.6137 20.4499 53.7837 20.2932C53.957 20.1332 54.1887 19.9999 54.4787 19.8932C54.6787 19.8199 54.917 19.7549 55.1937 19.6982C55.4703 19.6415 55.7837 19.5882 56.1337 19.5382C56.4837 19.4849 56.8687 19.4265 57.2887 19.3632L56.7987 19.6332C56.7987 19.3132 56.722 19.0782 56.5687 18.9282C56.4153 18.7782 56.1587 18.7032 55.7987 18.7032C55.5987 18.7032 55.3903 18.7515 55.1737 18.8482C54.957 18.9449 54.8053 19.1165 54.7187 19.3632L53.4887 18.9732C53.6253 18.5265 53.882 18.1632 54.2587 17.8832C54.6353 17.6032 55.1487 17.4632 55.7987 17.4632C56.2753 17.4632 56.6987 17.5365 57.0687 17.6832C57.4387 17.8298 57.7187 18.0832 57.9087 18.4432C58.0153 18.6432 58.0787 18.8432 58.0987 19.0432C58.1187 19.2432 58.1287 19.4665 58.1287 19.7132V23.0132H56.9387V21.9032L57.1087 22.1332C56.8453 22.4965 56.5603 22.7599 56.2537 22.9232C55.9503 23.0832 55.5653 23.1632 55.0987 23.1632ZM55.3887 22.0932C55.6387 22.0932 55.8487 22.0499 56.0187 21.9632C56.192 21.8732 56.3287 21.7715 56.4287 21.6582C56.532 21.5449 56.602 21.4499 56.6387 21.3732C56.7087 21.2265 56.7487 21.0565 56.7587 20.8632C56.772 20.6665 56.7787 20.5032 56.7787 20.3732L57.1787 20.4732C56.7753 20.5399 56.4487 20.5965 56.1987 20.6432C55.9487 20.6865 55.747 20.7265 55.5937 20.7632C55.4403 20.7999 55.3053 20.8399 55.1887 20.8832C55.0553 20.9365 54.947 20.9949 54.8637 21.0582C54.7837 21.1182 54.7237 21.1849 54.6837 21.2582C54.647 21.3315 54.6287 21.4132 54.6287 21.5032C54.6287 21.6265 54.6587 21.7332 54.7187 21.8232C54.782 21.9099 54.8703 21.9765 54.9837 22.0232C55.097 22.0699 55.232 22.0932 55.3887 22.0932ZM58.8287 23.0132L60.7087 20.3132L58.9587 17.6132H60.4387L62.0687 20.2132V17.6132H63.2687V20.2132L64.8987 17.6132H66.3787L64.6287 20.3132L66.5087 23.0132H64.9387L63.2687 20.4132V23.0132H62.0687V20.4132L60.3987 23.0132H58.8287Z" fill="white"/>
<path d="M0.805878 3.21289C0.805878 1.61289 2.10588 0.212891 3.80588 0.212891H4.90588V6.21289H3.70588C2.10588 6.21289 0.805878 4.91289 0.805878 3.21289Z" fill="#FFA3EF"/>
<path d="M1.00588 7.11292L6.40588 7.31292L0.805878 3.11292L1.00588 7.11292Z" fill="#FE01BA"/>
<defs>
<linearGradient id="paint0_linear_512_594" x1="0.795939" y1="12.3246" x2="81.6569" y2="20.3361" gradientUnits="userSpaceOnUse">
<stop stop-color="#FF00B8"/>
<stop offset="0.338542" stop-color="#B009FE"/>
<stop offset="0.597766" stop-color="#3E1FFC"/>
<stop offset="0.954734" stop-color="#00DEFF"/>
</linearGradient>
</defs>
</svg>
